<svg xmlns="http://www.w3.org/2000/svg" xmlns:xlink="http://www.w3.org/1999/xlink" width="62" height="41" viewBox="0 0 62 41"><defs><path id="ydi8a" d="M296.86 1425.58v-28.09c2.25-.64 4.5-.45 6.75-.45 1.44 0 2.85.22 4.21.7 1.1.4 2.26.68 3.34 1.15 1.4.6 2.73 1.38 3.87 2.43.64.58 1.3 1.14 1.93 1.73.22.2.39.46.59.71.85-.83 1.58-1.7 2.47-2.39 1.04-.8 2.18-1.48 3.33-2.12a18.1 18.1 0 0 1 2.93-1.32c.82-.28 1.74-.3 2.59-.55 2.07-.6 4.19-.3 6.28-.33 1.07 0 2.13.23 3.2.35.1.5.12 27.43.03 27.99-1.5-.04-2.98-.1-4.47-.11-1.25-.02-2.52-.09-3.76.03-1.36.13-2.7.42-4.05.7-1.07.2-2.18.38-3.19.77-1.5.59-2.94 1.33-4.39 2.06-.6.3-1.01.55-1.77.05-1.21-.8-2.61-1.32-3.97-1.87-1.4-.57-2.86-.88-4.35-1.15a28.35 28.35 0 0 0-6.07-.59c-.49.02-.98-.02-1.47.01-1.32.07-2.66-.22-4.03.29zm-8.82 9.42v-.61-12.05c0-1.29.1-2.57.09-3.86-.02-3.8 0-7.6-.13-11.4-.03-1.06.51-1.44 1.22-1.85.24-.14.49-.25.84-.42v27.6l2.66-.94c.92-.32 1.83-.69 2.76-.99.87-.27 1.75-.52 2.64-.71.9-.2 1.83-.24 2.73-.46 2.49-.6 5.01-.3 7.52-.33 1.52-.02 3.01.27 4.49.67.83.23 1.69.35 2.54.53.24.06.48.17.73.23-5.92-3.35-16.5-3.66-24.45.64-.02-.2-.05-.36-.05-.52 0-8.79.01-17.58-.03-26.36 0-.74.56-.84.9-1.15.58-.56 1.3-.99 1.97-1.45.12-.09.3-.1.5-.17v26.54c1.08-.24 2.1-.53 3.14-.7 1.36-.21 2.73-.42 4.1-.46 1.68-.06 3.37 0 5.05.12.8.06 1.6.35 2.4.55.69.17 1.4.28 2.05.54 1.26.5 2.5 1.06 3.71 1.65.67.32 1.27.76 1.92 1.11.13.07.38.05.52-.03.84-.48 1.64-1.03 2.5-1.48.73-.39 1.51-.72 2.3-1 1-.35 2.01-.63 3.02-.93.27-.08.56-.12.83-.17 2.55-.53 5.14-.42 7.72-.36 1.11.03 2.24.26 3.34.48.88.18 1.73.48 2.68.75v-26.53c.13-.02.22-.06.25-.04 1.02.75 2.04 1.5 3.04 2.27.1.07.08.3.08.46v26.3c0 .18-.06.37-.1.55-7.97-3.84-16-4.32-24.14-.76 1.07-.26 2.14-.55 3.23-.78.79-.17 1.59-.35 2.39-.39 1.95-.08 3.9-.1 5.86-.13a21.2 21.2 0 0 1 5.41.7c.77.2 1.56.3 2.32.53 1.27.39 2.52.85 3.79 1.28.89.3 1.77.62 2.72.95v-27.67c.68.42 1.26.77 1.82 1.15.07.04.05.23.05.35v28.62c0 .04-.03.07-.01.03-1.9-.68-3.78-1.38-5.69-2.03-1.2-.4-2.42-.75-3.64-1.1-1.15-.33-2.3-.65-3.47-.95-.37-.1-.76-.12-1.14-.15-1.85-.13-3.7-.3-5.56-.36-1.6-.06-3.21-.06-4.82 0-1.1.06-2.22.2-3.3.42-1.52.32-3 .12-4.48-.17-.8-.15-1.62-.24-2.43-.25-2.27-.03-4.54-.06-6.8.01-1.3.04-2.59.24-3.87.45-1.27.2-2.55.42-3.78.78-2.09.61-4.14 1.33-6.2 2.04-1.21.42-2.41.9-3.74 1.41z"/><clipPath id="ydi8b"><use fill="#fff" xlink:href="#ydi8a"/></clipPath></defs><g><g transform="translate(-286 -1395)"><use fill="#fff" fill-opacity="0" stroke="#a28064" stroke-linecap="round" stroke-linejoin="round" stroke-miterlimit="50" stroke-width="4" clip-path="url(&quot;#ydi8b&quot;)" xlink:href="#ydi8a"/></g></g></svg>