<svg xmlns="http://www.w3.org/2000/svg" xmlns:xlink="http://www.w3.org/1999/xlink" width="51" height="40" viewBox="0 0 51 40"><defs><path id="1b32a" d="M291.86 1630.69l.28-.81.56-1.42.44-1.05.37-.94.6-1.55.53-1.4.59-1.47.37-.97c.09-.22.19-.45.27-.68.02-.05 0-.16-.05-.2-.31-.2-.64-.4-.96-.62-.33-.22-.67-.44-.99-.69-.42-.33-.82-.68-1.22-1.04a10.12 10.12 0 0 1-1.83-2.08c-.38-.6-.76-1.21-1.08-1.85-.2-.38-.3-.82-.41-1.24-.13-.48-.27-.97-.3-1.47-.06-.57-.02-1.16.02-1.74.02-.35.09-.7.16-1.03.17-.71.37-1.4.75-2.04.4-.64.74-1.33 1.2-1.92a14.03 14.03 0 0 1 3.7-3.3c.67-.45 1.38-.86 2.1-1.24.64-.32 1.3-.59 1.96-.85.68-.27 1.37-.54 2.08-.75.68-.22 1.38-.37 2.08-.53.77-.17 1.53-.35 2.3-.47.62-.1 1.26-.08 1.88-.18 1.35-.21 2.7-.16 4.07-.14.88.01 1.76.12 2.64.2.48.04.96.1 1.43.17.39.06.77.17 1.15.25.36.07.72.1 1.08.2.6.14 1.2.3 1.79.48.66.2 1.33.4 1.97.67.83.34 1.66.71 2.46 1.12.7.37 1.38.78 2.03 1.23.6.42 1.15.93 1.74 1.39.78.6 1.4 1.35 1.97 2.13.44.6.86 1.21 1.1 1.93.19.58.45 1.15.59 1.74.2.87.3 1.75.15 2.64-.1.57-.17 1.14-.34 1.69a12.12 12.12 0 0 1-4.9 6.3c-.66.45-1.32.91-2.03 1.3-.72.4-1.5.7-2.25 1.04-.46.2-.93.4-1.4.57-.43.16-.87.27-1.3.4-.32.09-.64.2-.96.27l-1.74.36c-.5.1-1 .2-1.51.27-.61.09-1.22.15-1.84.21-.67.06-1.35.13-2.03.15-.64.02-1.28-.02-1.92-.04-.28 0-.55.02-.83 0-.7-.05-1.4-.1-2.09-.17-.36-.03-.73-.09-1.09-.15l-1.19-.26c-.46-.1-.92-.22-1.38-.25-.17-.01-.35.19-.52.3-.5.35-1 .7-1.48 1.07l-1.1.85-1.36 1.02-1.65 1.2c-.7.51-1.39 1.04-2.09 1.56-.62.47-1.23.93-1.85 1.38l-.67.48-.05-.03zm15.64-5.67c.6.04 1.14.09 1.67.1.6.02 1.2.02 1.8.01.26 0 .53-.04.8-.05.56-.02 1.13-.01 1.7-.06.56-.06 1.1-.17 1.66-.26l.5-.06c.55-.1 1.1-.19 1.64-.3a16.99 16.99 0 0 0 2.98-.79c.69-.24 1.36-.5 2.04-.77.46-.17.93-.34 1.37-.55.53-.25 1.03-.55 1.54-.84.48-.28.96-.55 1.41-.87.5-.35 1-.71 1.46-1.12.6-.52 1.19-1.07 1.73-1.65a12.18 12.18 0 0 0 2.07-3.08c.17-.33.29-.67.42-1.02l.42-1.2c.29.26.6.48.85.76.47.54.94 1.1 1.33 1.7.32.5.54 1.07.77 1.63.34.83.38 1.7.31 2.58-.04.47-.16.94-.3 1.4-.19.52-.4 1.03-.66 1.53a10.22 10.22 0 0 1-2.47 2.78c-.52.4-1.09.73-1.62 1.1-.07.06-.13.23-.1.32.1.32.23.63.36.94l.46 1.13.73 1.83.4 1.04.52 1.37.53 1.28-.02.1c-.05 0-.1 0-.14-.02l-1.38-1.06c-.34-.26-.7-.5-1.04-.75l-2.16-1.6-1.7-1.24-1.38-1.08c-.25-.2-.52-.13-.8-.08-.4.09-.82.15-1.23.22-.5.08-1 .18-1.5.25-.3.05-.61.06-.92.06-1.1.01-2.2.03-3.3 0-.62-.02-1.23-.13-1.84-.2-.4-.05-.8-.1-1.2-.17a23.42 23.42 0 0 1-3.23-.9c-.39-.14-.75-.31-1.13-.47-.38-.16-.77-.3-1.13-.5-.44-.23-.85-.5-1.27-.76l-.8-.52-.15-.16z"/><clipPath id="1b32b"><use fill="#fff" xlink:href="#1b32a"/></clipPath></defs><g><g transform="translate(-287 -1595)"><use fill="#fff" fill-opacity="0" stroke="#a28064" stroke-linecap="round" stroke-linejoin="round" stroke-miterlimit="50" stroke-width="4" clip-path="url(&quot;#1b32b&quot;)" xlink:href="#1b32a"/></g></g></svg>