<svg xmlns="http://www.w3.org/2000/svg" xmlns:xlink="http://www.w3.org/1999/xlink" width="26" height="54" viewBox="0 0 26 54"><defs><path id="6qj0a" d="M297.72 1246.43l-.13-1.3c0-.12 0-.23-.02-.34l-.2-.92c-.06-.3-.1-.59-.18-.88-.14-.5-.3-.99-.46-1.48-.18-.56-.36-1.13-.57-1.68-.22-.58-.47-1.15-.72-1.71-.3-.7-.61-1.4-.96-2.08a87.03 87.03 0 0 0-2.7-4.95c-.3-.53-.65-1.03-.97-1.55-.5-.76-.97-1.53-1.47-2.28-.41-.62-.86-1.23-1.3-1.85a.28.28 0 0 1-.03-.2c.06-.26.15-.5.22-.75.17-.53.34-1.06.48-1.6.15-.52.27-1.05.42-1.58.15-.59.33-1.17.48-1.76l.3-1.28c.1-.48.24-.95.35-1.43l.3-1.43c.06-.32.15-.64.21-.95.07-.32.1-.64.17-.95l.22-1.08.16-1.04c.07-.43.16-.85.22-1.28.06-.39.09-.78.14-1.17l.25-1.68c.05-.4.1-.8.13-1.2.05-.52.1-1.05.13-1.57.03-.7.03-1.4.04-2.1l.03-.6h13.5v.57c.01.4 0 .82.02 1.23.04.74.1 1.48.16 2.21l.1 1.01c.01.18.01.37.04.55l.24 1.68c.02.1 0 .2.02.3l.2 1.09.14.97.04.38.25 1.2c.01.08 0 .16.02.24.06.27.13.55.18.83.07.36.12.73.2 1.08l.32 1.4c.07.3.12.61.2.92l.32 1.3c.07.28.11.55.18.82.1.4.23.8.34 1.21.1.41.19.83.3 1.24l.46 1.52.5 1.71c.02.06-.01.15-.05.2l-1.04 1.48-1.12 1.7c-.27.41-.55.82-.8 1.24-.3.48-.57.96-.86 1.44l-.82 1.38c-.25.44-.48.88-.71 1.33l-.7 1.34a70 70 0 0 0-.7 1.42c-.24.5-.49 1.01-.72 1.52l-.43 1.1c-.24.63-.5 1.26-.72 1.9a29.07 29.07 0 0 0-.9 3.53c-.08.5-.1 1.01-.13 1.52l-.06.68h-.84v-.16l-.03-9.28-.05-4.02c0-.1 0-.2.02-.29.01-.13.05-.26.04-.39 0-.16-.06-.33-.06-.5l.02-.67v-1.9c-.01-1.63 0-3.25-.02-4.87 0-.18.07-.26.22-.3a1.48 1.48 0 0 0 .8-1.94c-.24-.63-1.1-1.1-1.81-.85-.58.2-.93.6-1.05 1.14-.13.66.2 1.37.9 1.64.2.07.32.14.32.41-.03 1.42-.03 2.85-.04 4.27l-.02 5.35-.01 5.1v7.26h-.86l-.04-.57zm-7.19-51.43h16.94v5.54h-16.94V1195z"/><clipPath id="6qj0b"><use fill="#fff" xlink:href="#6qj0a"/></clipPath></defs><g><g transform="translate(-286 -1194)"><use fill="#fff" fill-opacity="0" stroke="#a28064" stroke-linecap="round" stroke-linejoin="round" stroke-miterlimit="50" stroke-width="4" clip-path="url(&quot;#6qj0b&quot;)" xlink:href="#6qj0a"/></g></g></svg>